<svg width="20" height="20" viewBox="0 0 20 20" fill="none" xmlns="http://www.w3.org/2000/svg">
<g clip-path="url(#clip0)">
<path d="M19.8239 3.97351L13.7583 10L19.8239 16.0266C19.9335 15.7974 20.0001 15.544 20.0001 15.2735V4.7266C20.0001 4.45601 19.9335 4.20269 19.8239 3.97351Z" fill="#F5DC4E"/>
<path d="M18.242 2.96875H1.75766C1.48708 2.96875 1.23376 3.03527 1.00458 3.14492L8.75704 10.8583C9.44251 11.5438 10.5572 11.5438 11.2427 10.8583L18.9951 3.14492C18.7659 3.03527 18.5126 2.96875 18.242 2.96875Z" fill="#F5DC4E"/>
<path d="M0.176172 3.97351C0.0665234 4.20269 0 4.45601 0 4.7266V15.2735C0 15.5441 0.0665234 15.7974 0.176172 16.0266L6.24176 10L0.176172 3.97351Z" fill="#F5DC4E"/>
<path d="M12.9295 10.8286L12.0712 11.6869C10.9291 12.8291 9.07059 12.8291 7.92844 11.6869L7.07016 10.8286L1.00458 16.8551C1.23376 16.9648 1.48708 17.0313 1.75766 17.0313H18.242C18.5126 17.0313 18.7659 16.9648 18.9951 16.8551L12.9295 10.8286Z" fill="#F5DC4E"/>
</g>
<defs>
<clipPath id="clip0">
<rect width="20" height="20" fill="white"/>
</clipPath>
</defs>
</svg>
