<svg width="20" height="20" viewBox="0 0 20 20" fill="none" xmlns="http://www.w3.org/2000/svg">
<g clip-path="url(#clip0)">
<path d="M19.8983 0.819067C19.8093 0.74098 19.6826 0.722863 19.5752 0.772669L0.173145 9.78743C0.0686906 9.83598 0.00142605 9.9402 0.000170444 10.0554C-0.00108516 10.1705 0.0639672 10.2762 0.167405 10.3269L5.65817 13.0216C5.75885 13.071 5.87891 13.0598 5.96884 12.9926L11.3074 9.00256L7.1164 13.3135C7.05661 13.375 7.02612 13.4592 7.0327 13.5447L7.44998 18.9791C7.45924 19.0995 7.53996 19.2024 7.6547 19.2402C7.68537 19.2502 7.71688 19.2551 7.74803 19.2551C7.83347 19.2551 7.91658 19.2185 7.9744 19.1515L10.8887 15.7744L14.4914 17.4958C14.5696 17.5331 14.6601 17.5347 14.7396 17.5001C14.8191 17.4655 14.8796 17.3982 14.9055 17.3156L19.9864 1.13339C20.0219 1.02038 19.9873 0.897153 19.8983 0.819067Z" fill="#F5DC4E"/>
</g>
<defs>
<clipPath id="clip0">
<rect width="20" height="20" fill="white"/>
</clipPath>
</defs>
</svg>
