<svg width="14" height="20" viewBox="0 0 14 20" fill="none" xmlns="http://www.w3.org/2000/svg">
<path d="M7.01418 0H6.98563C3.53167 0 0.721756 2.80898 0.721756 6.26162C0.721756 8.52482 1.75246 11.5117 3.78522 15.1394C5.29229 17.8289 6.8205 19.8888 6.83581 19.9092C6.87835 19.9664 6.9454 20 7.01643 20C7.01845 20 7.02052 20 7.02254 20C7.09583 19.9979 7.16349 19.9604 7.20415 19.8993C7.21922 19.8765 8.73654 17.5852 10.2334 14.7826C12.2537 11 13.2782 8.13305 13.2782 6.26162C13.278 2.80893 10.468 0 7.01418 0ZM9.90551 6.41464C9.90551 8.01685 8.60207 9.32025 6.99986 9.32025C5.3977 9.32025 4.09426 8.0168 4.09426 6.41464C4.09426 4.81248 5.3977 3.50904 6.99986 3.50904C8.60207 3.50904 9.90551 4.81248 9.90551 6.41464Z" fill="#F5DC4E"/>
</svg>
