<svg width="17" height="16" viewBox="0 0 17 16" fill="none" xmlns="http://www.w3.org/2000/svg">
<g clip-path="url(#clip0)">
<path d="M11.2439 0H5.27072C2.52207 0 0.293091 2.239 0.293091 5V11C0.293091 13.761 2.52207 16 5.27072 16H11.2439C13.9925 16 16.2215 13.761 16.2215 11V5C16.2215 2.239 13.9925 0 11.2439 0ZM14.7282 11C14.7282 12.93 13.1652 14.5 11.2439 14.5H5.27072C3.34935 14.5 1.78638 12.93 1.78638 11V5C1.78638 3.07 3.34935 1.5 5.27072 1.5H11.2439C13.1652 1.5 14.7282 3.07 14.7282 5V11Z" fill="#F5DC4E"/>
<path d="M8.25731 4C6.05819 4 4.27521 5.791 4.27521 8C4.27521 10.209 6.05819 12 8.25731 12C10.4564 12 12.2394 10.209 12.2394 8C12.2394 5.791 10.4564 4 8.25731 4ZM8.25731 10.5C6.88548 10.5 5.7685 9.378 5.7685 8C5.7685 6.621 6.88548 5.5 8.25731 5.5C9.62914 5.5 10.7461 6.621 10.7461 8C10.7461 9.378 9.62914 10.5 8.25731 10.5Z" fill="#F5DC4E"/>
<path d="M12.5381 4.23299C12.8311 4.23299 13.0687 3.99436 13.0687 3.69999C13.0687 3.40562 12.8311 3.16699 12.5381 3.16699C12.245 3.16699 12.0074 3.40562 12.0074 3.69999C12.0074 3.99436 12.245 4.23299 12.5381 4.23299Z" fill="#F5DC4E"/>
</g>
<defs>
<clipPath id="clip0">
<rect width="15.9284" height="16" fill="white" transform="translate(0.293091)"/>
</clipPath>
</defs>
</svg>
