<svg width="15" height="15" viewBox="0 0 15 15" fill="none" xmlns="http://www.w3.org/2000/svg">
<g clip-path="url(#clip0)">
<path d="M1.81104 2.61336L4.18196 6.73646C4.4079 5.75022 5.05758 4.91116 5.91726 4.45835C6.64851 4.07304 7.32444 4.09648 8.37068 4.09648C9.81349 4.09554 12.4769 4.09742 14.1785 4.09648C11.7625 -0.643492 5.29758 -1.44411 1.81104 2.61336Z" fill="#F5DC4E"/>
<path d="M7.49793 5.00684C6.12262 5.0059 5.00513 6.12527 5.00513 7.50058C5.00513 8.87589 6.12356 9.99432 7.49793 9.99432C8.8723 9.99432 9.99074 8.87589 9.99074 7.50058C9.99074 6.12527 8.8723 5.00684 7.49793 5.00684Z" fill="#F5DC4E"/>
<path d="M4.53166 9.17117C3.84729 7.98993 2.03792 4.83901 1.21668 3.40558C-1.6633 7.8193 0.818243 13.8333 6.04571 14.8599L8.46445 10.7649C7.06571 11.1802 5.4279 10.7199 4.53166 9.17117Z" fill="#F5DC4E"/>
<path d="M14.5685 5.00494L9.81252 5.00588C10.9778 6.08962 11.2319 7.84462 10.4425 9.20492C9.84815 10.2305 7.94971 13.434 7.03003 14.9846C12.416 15.3164 16.3422 10.0384 14.5685 5.00494Z" fill="#F5DC4E"/>
</g>
<defs>
<clipPath id="clip0">
<rect width="15" height="15" fill="white"/>
</clipPath>
</defs>
</svg>
