<svg width="15" height="15" viewBox="0 0 15 15" fill="none" xmlns="http://www.w3.org/2000/svg">
<path d="M10.4353 0.326233C11.8837 1.31061 12.7181 3.90655 12.7181 5.86967C12.7181 6.37123 12.6525 6.86061 12.5353 7.31717C12.4303 6.17623 11.8434 5.17217 10.9697 4.51967C11.4525 5.17123 11.7394 5.97373 11.7394 6.84748C11.7394 9.00654 9.98531 10.7606 7.82625 10.7606C6.9525 10.7606 6.52219 10.5909 5.86969 10.1081C7.19344 10.1081 8.00813 8.80405 9.13031 8.80405C9.13031 8.80405 8.96813 8.15155 8.1525 8.15155C7.33688 8.15155 7.72219 8.80405 6.19594 8.80405C4.66969 8.80405 3.91312 7.88436 3.91312 7.17373C3.91312 6.46311 4.96969 5.94748 5.21719 6.19592C5.43938 5.97373 5.21719 5.54342 5.21719 5.54342L7.17469 4.23936C7.17469 4.23936 6.84844 4.23936 6.52219 4.23936C3.62625 4.23936 5.28938 2.21061 5.86969 1.6303C4.83281 1.6303 4.18031 2.58936 3.91219 2.93436C3.74906 2.85655 2.60813 2.85655 2.28188 2.93436C2.13844 2.96717 1.93687 2.71311 1.7475 2.36061C1.51312 1.91717 1.30406 1.32373 1.30406 0.977795C0.47625 1.80655 0.619687 3.04592 0.945937 3.53436C0.932812 3.54748 0.919687 3.56717 0.913125 3.58686C0.332812 4.64998 0 5.87623 0 7.17373C0 11.3147 3.35906 14.6737 7.5 14.6737C11.6409 14.6737 15 11.6409 15 7.49998C15 7.42779 15 6.91967 15 6.84748C15 2.97561 12.5222 0.951545 10.4353 0.326233Z" fill="#F5DC4E"/>
</svg>
