<svg width="15" height="15" viewBox="0 0 15 15" fill="none" xmlns="http://www.w3.org/2000/svg">
<path d="M7.50007 0.92218C7.24753 0.92218 6.99361 0.935803 6.74205 0.962754C6.82664 0.824557 6.85728 0.670377 6.82536 0.520475C6.75921 0.209164 6.4421 0 6.03621 0C5.9533 0 5.86876 0.009 5.78466 0.0267541C5.54928 0.0768197 5.34267 0.189885 5.203 0.345197C5.05359 0.511328 4.99384 0.708787 5.03476 0.901131C5.06687 1.05256 5.15987 1.1822 5.29664 1.27426C3.96125 1.71531 2.76489 2.5653 1.90551 3.68902C0.960657 4.92443 0.461182 6.40175 0.461182 7.96112C0.461182 11.8423 3.6188 15 7.50007 15C11.3813 15 14.5391 11.8423 14.5391 7.96112C14.5391 4.0798 11.3813 0.92218 7.50007 0.92218ZM6.03621 0.476361C6.21951 0.476361 6.34453 0.549098 6.35943 0.619426C6.36774 0.658672 6.34531 0.709475 6.30031 0.758459C6.18597 0.703771 6.05456 0.68759 5.92851 0.714393C5.80389 0.740902 5.69136 0.808279 5.60849 0.904082C5.54894 0.877574 5.5089 0.840639 5.50069 0.802033C5.49135 0.758016 5.52017 0.698951 5.57776 0.644115C5.65182 0.573541 5.76336 0.51841 5.88366 0.492836C5.9351 0.481918 5.98644 0.476361 6.03621 0.476361ZM9.02594 12.8523L8.46459 11.9419C8.43739 11.8977 8.38526 11.8753 8.33446 11.8861C8.28356 11.897 8.24505 11.9385 8.23812 11.99L8.09594 13.0483C7.89818 13.0711 7.69817 13.0827 7.50007 13.0827C6.16974 13.0827 4.91692 12.579 3.95928 11.6616C3.96946 11.6576 3.97925 11.6521 3.98835 11.6452L6.76585 9.5342C6.95166 9.6208 7.15285 9.67456 7.35538 9.69177L8.06013 11.1709C8.08462 11.2223 8.14128 11.2501 8.19671 11.2382C8.25233 11.2264 8.29256 11.178 8.29403 11.1211L8.33638 9.48389C8.49149 9.399 8.63136 9.29149 8.75372 9.16313L9.58576 9.45807C9.63946 9.47705 9.69902 9.45684 9.72995 9.40913C9.76098 9.36143 9.75523 9.29872 9.71603 9.25751L9.10821 8.61748C9.17574 8.45321 9.21715 8.28162 9.23146 8.10561L10.7099 7.40095C10.7613 7.37651 10.7891 7.32005 10.7773 7.26438C10.7655 7.20875 10.7171 7.16852 10.6602 7.16705L9.14849 7.128L11.1844 4.4492C11.1912 4.44015 11.1967 4.43041 11.2007 4.42033C11.7491 4.99343 12.1587 5.68633 12.3915 6.43525L11.4811 6.99659C11.4369 7.02384 11.4145 7.07597 11.4253 7.12682C11.4361 7.17762 11.4777 7.21618 11.5292 7.22307L12.5873 7.36525C12.6103 7.56374 12.6218 7.76375 12.6218 7.96112C12.6218 9.32902 12.0891 10.6152 11.1216 11.5826C10.5336 12.1706 9.81071 12.6083 9.02594 12.8523ZM3.57494 8.79541C3.56412 8.74456 3.52256 8.70605 3.47107 8.69912L2.4129 8.55679C2.38999 8.3583 2.37843 8.15833 2.37843 7.96107C2.37843 6.59292 2.9112 5.30675 3.87862 4.33948C4.46662 3.75152 5.18953 3.31377 5.9742 3.06959L6.53559 3.98016C6.56284 4.02438 6.61512 4.0468 6.66577 4.03589C6.71662 4.02507 6.75513 3.98346 6.76207 3.93202L6.9043 2.8738C7.1019 2.85093 7.30187 2.83938 7.50007 2.83938C8.83044 2.83938 10.0833 3.34313 11.0409 4.26049C11.0308 4.26452 11.0211 4.26998 11.012 4.27687L8.23443 6.38784C8.04877 6.30128 7.84762 6.24748 7.64495 6.23026L6.94005 4.75111C6.91556 4.69977 6.85885 4.67189 6.80353 4.68374C6.7479 4.69554 6.70762 4.74398 6.70615 4.80084L6.66385 6.4382C6.50879 6.52303 6.36887 6.63049 6.24646 6.75885L5.41438 6.46392C5.36072 6.44493 5.30112 6.4652 5.27018 6.51285C5.2392 6.56056 5.24495 6.62326 5.28415 6.66448L5.89197 7.30456C5.82454 7.46887 5.78323 7.64046 5.76882 7.81648L4.29031 8.52103C4.23897 8.54552 4.21113 8.60198 4.22294 8.65761C4.23474 8.71323 4.28318 8.75346 4.34003 8.75493L5.85189 8.79398L3.81602 11.4728C3.80908 11.4819 3.80362 11.4917 3.79959 11.5018C3.25128 10.929 2.84171 10.236 2.60874 9.48674L3.51912 8.92549C3.56338 8.89834 3.58571 8.84621 3.57494 8.79541ZM8.158 9.0359C8.03594 9.1107 7.90271 9.16382 7.76205 9.19372C7.62582 9.22274 7.48625 9.22918 7.34549 9.21216C7.33999 9.21103 7.33438 9.21025 7.32882 9.2099C7.29213 9.20489 7.25554 9.1982 7.2192 9.18979L8.06358 8.54789C8.07253 8.54115 8.0804 8.53328 8.08713 8.52438L8.72869 7.68015C8.73012 7.68639 8.73159 7.69269 8.73292 7.69898C8.84353 8.22054 8.61262 8.75779 8.158 9.0359ZM7.23798 6.72836C7.32533 6.70982 7.414 6.70048 7.50149 6.70048C7.55289 6.70048 7.60517 6.70377 7.65695 6.71026C7.66157 6.71115 7.66625 6.71174 7.67087 6.71208C7.70785 6.71715 7.74464 6.72389 7.78113 6.7323L6.93661 7.3741C6.92776 7.38084 6.91984 7.38871 6.9131 7.39761L6.27144 8.24193C6.27002 8.23564 6.26859 8.22934 6.26726 8.22305C6.12297 7.54333 6.55846 6.87285 7.23798 6.72836Z" fill="#F5DC4E"/>
</svg>
